<?xml version="1.0" encoding="UTF-8"?>
<svg id="Page_1" data-name="Page 1" xmlns="http://www.w3.org/2000/svg" viewBox="0 0 180 25.22">
  <defs>
    <style>
      .cls-1 {
        fill-rule: evenodd;
      }

      .cls-1, .cls-2 {
        fill: #969696;
      }
    </style>
  </defs>
  <g id="Layer_1" data-name="Layer 1">
    <g>
      <path class="cls-1" d="M7.32,7.39c1.1,0,2,.9,2,2s-.9,2-2,2-2-.9-2-2,.9-2,2-2h0Z"/>
      <path class="cls-1" d="M15.04,5.06c1.1,0,2,.9,2,2s-.9,2-2,2-2-.9-2-2,.9-2,2-2h0Z"/>
      <path class="cls-1" d="M12.61,0c6.96,0,12.61,5.65,12.61,12.61s-5.65,12.61-12.61,12.61S0,19.57,0,12.61,5.65,0,12.61,0h0Zm0,1.93c5.9,0,10.68,4.78,10.68,10.68s-4.78,10.68-10.68,10.68S1.93,18.5,1.93,12.61,6.71,1.93,12.61,1.93h0Z"/>
      <path class="cls-1" d="M21.47,12.65c-.27,4.36-4.28,8.24-9.1,8.24-3.01,0-5.7-1.46-7.3-3.53l1.23-1.01c1.34,1.73,3.4,2.91,6.08,2.95,3.92,.05,7.29-3.24,7.51-6.85l1.58,.21h0Z"/>
      <polygon class="cls-1" points="60.95 7.42 60.95 24.41 57.03 24.41 57.03 10.71 54.84 10.71 54.84 7.42 60.95 7.42 60.95 7.42"/>
      <path class="cls-1" d="M84.19,7.42h2.88l.68,1.54c1.04-1.27,2.9-1.9,4.69-1.93,4.01-.06,6.59,2.55,6.59,6.65v10.73h-3.93V14.55c0-2.51-1.11-4.16-3.37-4.19-1.34-.02-2.72,.67-3.62,1.87v12.17h-3.93V7.42h0Z"/>
      <path class="cls-1" d="M42.06,7.42h4v1.38c1.54-2.04,5.58-2.24,7.57-1.11l-1.67,3.36c-2.48-1.35-4.81-.46-5.7,2.15-.15,.44-.2,1.13-.2,1.59v9.62h-4V7.42h0Z"/>
      <path class="cls-1" d="M167.46,7.42h4v1.38c1.54-2.04,5.58-2.24,7.57-1.11l-1.67,3.36c-2.48-1.35-4.81-.46-5.7,2.15-.15,.44-.2,1.13-.2,1.59v9.62h-4V7.42h0Z"/>
      <path class="cls-1" d="M31,7.42c-.02-1.88,.72-4.16,2.33-5.58,1.93-1.71,5.15-1.7,7.43-.71l-1.16,3.07c-1.11-.43-2.64-.77-3.6,.15-.73,.69-1.12,1.92-1.13,3.07h3.49v3.29h-3.42v13.7h-3.93V10.71h-2.47v-3.29h2.47Z"/>
      <path class="cls-1" d="M114.24,1.12l3.93-.95V24.41h-3.93v-.87c-1.25,.78-2.69,1.23-4.17,1.23-4.76,0-7.54-3.01-7.54-8.68s3.66-9.03,8.07-9.03c1.4,0,2.61,.28,3.64,.79V1.12h0Zm0,19.17V11.5c-.71-.66-1.68-1.05-2.95-1.05-2.67,0-4.65,2.05-4.65,5.54s1.74,5.47,4.71,5.47c1.2,0,2.17-.46,2.89-1.17h0Z"/>
      <path class="cls-1" d="M134.66,7.42h1.99V3.91l3.93-1.44V7.42h4.76v3.29h-4.76v7.69c0,2.1,.96,2.98,2.62,2.99,.84,0,1.76-.33,2.59-.78v3.79c-1.11,.24-2.3,.38-3.52,.38-4.19,0-5.62-2.37-5.61-5.17,0-2.96,0-5.93,0-8.89h-1.99v-3.29h0Z"/>
      <path class="cls-1" d="M59.02,.87c1.27,0,2.3,1.03,2.3,2.3s-1.03,2.3-2.3,2.3-2.3-1.03-2.3-2.3,1.03-2.3,2.3-2.3h0Z"/>
      <path class="cls-1" d="M147.73,16.25c0-5.35,2.96-8.82,8.14-9.14,6.85,0,9.43,5.23,8.09,9.91h-12.1c0,1.95,1.23,4.37,4.6,4.37,1.66,0,2.76-.31,4.3-1.32,.5,.96,1.04,2.02,1.53,2.98-1.94,1.39-3.47,1.69-6.34,1.69-5.42,0-8.23-3.31-8.23-8.48h0Zm8.51-5.86c2.34,0,3.71,1.2,4.06,3.73h-8.42c.48-2.22,2.27-3.73,4.35-3.73h0Z"/>
      <path class="cls-1" d="M64.38,16.25c0-5.35,2.96-8.82,8.14-9.14,6.85,0,9.43,5.23,8.09,9.91h-12.1c0,1.95,1.23,4.37,4.6,4.37,1.66,0,2.76-.31,4.3-1.32,.5,.96,1.04,2.02,1.53,2.98-1.94,1.39-3.47,1.69-6.34,1.69-5.42,0-8.23-3.31-8.23-8.48h0Zm8.51-5.86c2.34,0,3.71,1.2,4.06,3.73h-8.42c.48-2.22,2.27-3.73,4.35-3.73h0Z"/>
      <path class="cls-1" d="M122.13,8.72c1.12-1.11,2.96-1.65,4.75-1.65,2.04,0,3.46,.36,4.95,1.2-.36,.95-.75,1.99-1.11,2.94-1.94-1.1-3.82-1.17-4.87-.62-.76,.4-.98,1.08-.54,1.81,.31,.52,.95,.89,1.94,1.33,1.32,.58,2.65,1.21,3.82,2.09,2.82,2.11,2.31,6.51-.77,8.11-1.01,.52-2.27,.84-3.58,.84-2.13,0-3.97-.28-5.65-1.45,.46-1.04,.93-2.04,1.39-3.07,1.64,1.18,3.83,1.72,5.55,.96,.6-.26,.78-.97,.71-1.5-.16-1.19-1.74-1.98-2.94-2.53-1.62-.74-2.87-1.32-4.01-2.72-1.22-1.49-1.15-4.22,.37-5.74h0Z"/>
      <path class="cls-2" d="M176.54,21.55h.27c.34,0,.51,0,.6-.02,.08-.03,.15-.12,.19-.19,.05-.08,.07-.16,.07-.25s-.02-.15-.07-.22c-.05-.07-.11-.13-.2-.16-.08-.03-.26-.04-.59-.04h-.27v.89h0Zm.53-2.69c.5,0,.98,.13,1.45,.38,.46,.25,.83,.61,1.09,1.08,.26,.47,.4,.96,.4,1.47s-.13,1-.39,1.46c-.26,.46-.62,.82-1.08,1.08-.46,.26-.95,.39-1.46,.39s-1-.13-1.46-.39c-.46-.26-.82-.62-1.08-1.08-.26-.46-.39-.95-.39-1.46s.13-1,.4-1.47c.26-.47,.63-.83,1.09-1.08,.46-.25,.94-.38,1.45-.38h0Zm0,.57c-.4,0-.79,.1-1.16,.3-.37,.2-.66,.49-.87,.87-.21,.38-.32,.77-.32,1.19s.1,.8,.31,1.18c.21,.37,.5,.66,.87,.87,.37,.21,.76,.31,1.17,.31s.8-.1,1.17-.31c.37-.21,.66-.5,.87-.87,.21-.37,.31-.76,.31-1.18s-.11-.81-.32-1.19c-.21-.38-.51-.67-.88-.87-.37-.2-.76-.3-1.16-.3h0Zm-1.12,4.01v-3.31h.59c.55,0,.82,0,.89,0,.19,.02,.35,.06,.45,.13,.11,.07,.2,.18,.27,.32,.07,.14,.11,.27,.11,.45,0,.42-.19,.7-.48,.84,.42,.23,.33,1.19,.59,1.57h-.61c-.23-.45-.08-1.36-.72-1.36h-.5v1.36h-.59Z"/>
    </g>
  </g>
</svg>